<svg xmlns="http://www.w3.org/2000/svg" width="1600" height="1200" viewBox="0 0 1600 1200">
  <rect width="1600" height="1200" fill="#edf3f9"/>
  <path d="M0 210H1600M0 420H1600M0 630H1600M0 840H1600M0 1050H1600" stroke="#d9e2ef" stroke-width="2"/>
  <path d="M180 0V1200M420 0V1200M660 0V1200M900 0V1200M1140 0V1200M1380 0V1200" stroke="#d9e2ef" stroke-width="2"/>
  <g fill="none" stroke="#a7b9cf" stroke-width="3" opacity=".5">
    <rect x="126" y="118" width="264" height="134" rx="8"/>
    <rect x="1054" y="178" width="322" height="164" rx="8"/>
    <rect x="238" y="742" width="340" height="168" rx="8"/>
    <rect x="940" y="804" width="288" height="142" rx="8"/>
    <path d="M154 164H362M154 204H362M1092 230H1338M1092 278H1338M282 796H532M282 850H532M982 852H1188M982 894H1188"/>
  </g>
  <g fill="#0f5fc2" opacity=".08">
    <circle cx="1340" cy="650" r="220"/>
    <circle cx="300" cy="1030" r="180"/>
  </g>
</svg>
